<?xml version="1.0" encoding="UTF-8"?>
<!DOCTYPE svg PUBLIC "-//W3C//DTD SVG 1.1//EN" "http://www.w3.org/Graphics/SVG/1.1/DTD/svg11.dtd">
<!-- Creator: Corel DESIGNER -->
<svg xmlns="http://www.w3.org/2000/svg" xml:space="preserve" width="493.336mm" height="176.826mm" style="shape-rendering:geometricPrecision; text-rendering:geometricPrecision; image-rendering:optimizeQuality; fill-rule:evenodd; clip-rule:evenodd"
viewBox="0 0 486.995 174.554"
 xmlns:xlink="http://www.w3.org/1999/xlink">
 <defs>
  <style type="text/css">
   <![CDATA[
    .str0 {stroke:black;stroke-width:0.174133}
    .fil0 {fill:none}
   ]]>
  </style>
 </defs>
 <g id="Logo_x0020_RAW_x0020__x0028_SVG_x0029_">
  <metadata id="CorelCorpID_0Corel-Layer"/>
  <circle class="fil0 str0" cx="87.2769" cy="87.2769" r="87.1897"/>
  <polygon class="fil0 str0" points="66.3526,92.1695 78.7371,116.525 74.2309,125.369 49.4704,125.369 "/>
  <path class="fil0 str0" d="M64.1154 49.1845l16.1527 -9.87147e-005 38.818 76.1846 -24.8007 9.87147e-005 -34.4116 -67.5366c-2.43312,-4.77542 -0.53375,-8.648 4.24167,-8.648z"/>
  <polygon class="fil0 str0" points="108.201,82.3843 95.8172,58.0296 100.324,49.1845 125.083,49.1845 "/>
  <polygon class="fil0 str0" points="68.3362,135.197 78.5656,135.197 77.3024,151.137 67.0731,151.137 "/>
  <polygon class="fil0 str0" points="88.3934,135.197 98.6228,135.197 97.3595,151.137 87.1302,151.138 "/>
  <polygon class="fil0 str0" points="77.1942,23.4164 87.4236,23.4165 86.1603,39.3568 75.931,39.3571 "/>
  <polygon class="fil0 str0" points="97.2512,23.4164 107.481,23.4165 106.217,39.3568 95.9881,39.3571 "/>
  <polygon class="fil0 str0" points="210.749,78.6524 198.348,125.369 223.149,125.369 "/>
  <path class="fil0 str0" d="M216.222 58.0296l17.8755 67.3394 24.8007 0 -20.2216 -76.1843 -15.7688 0c-2.65315,0 -4.86821,1.81072 -5.46771,4.255l-1.21804 4.58994z"/>
  <polygon class="fil0 str0" points="254.319,49.1844 251.971,58.0296 269.847,125.369 294.648,125.369 274.426,49.1844 "/>
  <polygon class="fil0 str0" points="317.195,78.6525 304.794,125.369 329.595,125.369 "/>
  <path class="fil0 str0" d="M322.668 58.0297l17.8755 67.3394 24.8007 0 -20.2216 -76.1843 -15.7688 0c-2.65315,0 -4.86821,1.81072 -5.46771,4.255l-1.21804 4.58994z"/>
  <polygon class="fil0 str0" points="360.765,49.1845 358.417,58.0297 376.293,125.369 401.094,125.369 380.872,49.1845 "/>
  <polygon class="fil0 str0" points="428.123,92.1695 440.507,116.525 436.001,125.369 411.24,125.369 "/>
  <path class="fil0 str0" d="M425.885 49.1845l16.1527 -9.87147e-005 38.818 76.1846 -24.8007 9.87147e-005 -34.4116 -67.5366c-2.43312,-4.77542 -0.53375,-8.648 4.24167,-8.648z"/>
  <polygon class="fil0 str0" points="469.971,82.3843 457.587,58.0296 462.094,49.1845 486.853,49.1845 "/>
 </g>
</svg>
