<svg xmlns="http://www.w3.org/2000/svg" xml:space="preserve" width="1863.7" height="667.654" style="shape-rendering:geometricPrecision;text-rendering:geometricPrecision;image-rendering:optimizeQuality;fill-rule:evenodd;clip-rule:evenodd" viewBox="0 0 486.709 174.359">
<defs>
  <style>.fil1{fill:#000}.fil0{fill:#fff}</style>
</defs>
<g id="Text_x0020_White_x0020__x0028_SVG_x0029_">
  <path d="m210.637 78.556-12.399 46.711h24.798zM216.11 57.936l17.873 67.331h24.798l-20.219-76.175h-15.767a5.61 5.61 0 0 0-5.467 4.254zM254.202 49.092l-2.347 8.844 17.873 67.331h24.798l-20.219-76.175zM317.071 78.556l-12.4 46.711h24.798zM322.543 57.936l17.873 67.331h24.798l-20.219-76.175h-15.767a5.61 5.61 0 0 0-5.467 4.255zM360.636 49.092l-2.348 8.844 17.874 67.331h24.798l-20.22-76.175zM427.985 92.072l12.383 24.352-4.505 8.843h-24.758zM425.748 49.092h16.15l38.814 76.175h-24.798L421.507 57.74c-2.433-4.775-.534-8.647 4.241-8.647M469.829 82.288l-12.383-24.352 4.507-8.844h24.756z" class="fil0" />
</g>
<g id="Circle_x0020_White_x0020__x0028_SVG_x0029_">
  <circle cx="87.18" cy="87.18" r="87.18" class="fil0" />
  <path d="m66.258 92.072 12.383 24.352-4.506 8.843H49.377zM64.02 49.092h16.152l38.813 76.175H94.187L59.78 57.74c-2.433-4.775-.534-8.647 4.24-8.647M108.101 82.288 95.719 57.936l4.506-8.844h24.757zM68.241 135.094H78.47l-1.263 15.938-10.228.001zM88.296 135.094h10.228l-1.263 15.938-10.228.001zM77.098 23.327h10.228l-1.263 15.938H75.835zM97.153 23.327h10.228l-1.263 15.938H95.89z" class="fil1" />
</g>
</svg>
