<svg xmlns="http://www.w3.org/2000/svg" xml:space="preserve" width="1104.609" height="291.691" style="shape-rendering:geometricPrecision;text-rendering:geometricPrecision;image-rendering:optimizeQuality;fill-rule:evenodd;clip-rule:evenodd" viewBox="0 0 872.509 230.401">
<defs>
  <style>.fil0{fill:#000}</style>
</defs>
<g id="Text_x0020_Black_x0020__x0028_SVG_x0029_">
  <path d="M37.502 89.118 0 230.401h75.003zM54.055 26.75l54.06 203.651h75.003L121.963.001H74.274c-8.024 0-14.723 5.476-16.536 12.868zM169.269 0l-7.1 26.75 54.06 203.651h75.004L230.077 0zM359.421 89.119 321.919 230.4h75.003zM375.974 26.75l54.06 203.651h75.003L443.882.001h-47.689c-8.023 0-14.722 5.476-16.535 12.869zM491.188 0l-7.1 26.75 54.06 203.651h75.003L551.996.001zM694.893 129.997l37.454 73.658-13.628 26.746h-74.882zM688.127 0h48.85l117.395 230.401h-75.004L675.3 26.154C667.941 11.712 673.685.001 688.127.001zM821.453 100.405 784.002 26.75 797.631 0h74.878z" class="fil0" />
</g>
</svg>
